# xmcd
#
# Track frame offsets:
#	150
#	9988
#	22624
#	50576
#	63631
#	86001
#	114411
#	123645
#	141199
#	150819
#	162685
#	176132
#	188696
#	202765
#	215103
#
# Disc length: 3090 seconds
#
# Revision: 2
# Processed by: cddbd v1.5.2PL0 Copyright (c) Steve Scherf et al.
# Submitted via: CDmax 2.0
#
DISCID=c80c100f
DTITLE=Various Artist - British Blues Breakers
DYEAR=2004
DGENRE=Blues
TTITLE0=John Mayall's Bluesbreakers - I'm Your Witch Doctor
TTITLE1=Fleetwood Mac - Man of the World
TTITLE2=Yardbirds - I'm a Man
TTITLE3=Downliners Sect - Baby What's Wrong
TTITLE4=Animals - Boom Boom
TTITLE5=Chris Farlowe - They Call It Stormy Monday Blues [Pt. 1]
TTITLE6=Jimmy Page - L. A. Breakdown
TTITLE7=Graham Bond Organisation featuring Jack Brue - Train Time
TTITLE8=Eric Clapton - Tribute To Elmore
TTITLE9=All Stars featuring Jeff Beck - Steelin'
TTITLE10=Savoy Brown's Blues Band - I Tried
TTITLE11=Eric Clapton and Jimmy Page - Freight Loader
TTITLE12=Jeremy Spencer - Look Down At My Woman
TTITLE13=Steampacket - Cry Me a River
TTITLE14=Spencer Davis Group - Dimples
EXTD=LABEL =Atom Music Ltd.\nID =1pazz056-1\nUPC =883717-016324\nCOPYRIGH
EXTD=T =2004
EXTT0=
EXTT1=
EXTT2=
EXTT3=
EXTT4=
EXTT5=
EXTT6=
EXTT7=
EXTT8=
EXTT9=
EXTT10=
EXTT11=
EXTT12=
EXTT13=
EXTT14=
PLAYORDER=
